<svg id="Layer_1" data-name="Layer 1" xmlns="http://www.w3.org/2000/svg" viewBox="0 0 500 500" width="500" height="500" class="illustration"><defs><style>.cls-1{fill:#ffd44d;}.cls-2{fill:#f9bb0d;}.cls-3{fill:#f0457d;}.cls-4{fill:#db2868;}.cls-5{fill:#0099f5;}.cls-6{fill:#24285b;}.cls-7{fill:#fff;}</style></defs><title>Art Design</title><rect class="cls-1" x="156" y="87" width="282" height="333" rx="14.7"></rect><path class="cls-2" d="M156,83v33l20.76,17.7A47.21,47.21,0,0,0,207.41,145H387.19a47.25,47.25,0,0,0,31.18-11.75L438,116V83a3,3,0,0,0-3-3H159A3,3,0,0,0,156,83Z"></path><circle class="cls-3" cx="299" cy="145" r="26"></circle><circle class="cls-4" cx="299.14" cy="145.22" r="9.86"></circle><path class="cls-2" d="M250,341l-43.64,79H170.7A14.7,14.7,0,0,1,156,405.3V356Z"></path><path class="cls-5" d="M249.22,339.74l-50.93-32.62a1.69,1.69,0,0,0-2.61,1.42v17.84H114V356h81.68V373.8a1.7,1.7,0,0,0,2.61,1.42l50.93-32.63A1.69,1.69,0,0,0,249.22,339.74Z"></path><path class="cls-6" d="M88.05,231h57.62a3.93,3.93,0,0,0,0-7.86H88.05a3.93,3.93,0,1,0,0,7.86Z"></path><path class="cls-6" d="M68.49,230.81h2.63a3.93,3.93,0,0,0,0-7.86H68.49a3.93,3.93,0,1,0,0,7.86Z"></path><path class="cls-6" d="M65.15,271.16h57.62a3.93,3.93,0,0,0,0-7.86H65.15a3.93,3.93,0,0,0,0,7.86Z"></path><path class="cls-6" d="M119.59,307h2.63a3.93,3.93,0,0,0,0-7.85h-2.63a3.93,3.93,0,1,0,0,7.85Z"></path><path class="cls-7" d="M321.23,362.24h86.52c1.26,0,2.27-1.76,2.27-3.93s-1-3.93-2.27-3.93H321.23c-1.26,0-2.28,1.76-2.28,3.93S320,362.24,321.23,362.24Z"></path><path class="cls-7" d="M363.92,397.17h42.56c1.6,0,2.9-1.76,2.9-3.93s-1.3-3.93-2.9-3.93H363.92c-1.6,0-2.9,1.76-2.9,3.93S362.32,397.17,363.92,397.17Z"></path></svg>