<svg id="Layer_1" data-name="Layer 1" xmlns="http://www.w3.org/2000/svg" viewBox="0 0 500 500" width="500" height="500" class="illustration"><defs><style>.cls-1{fill:#ffbeb3;}.cls-2{fill:#f2948b;}.cls-3{fill:#f9a498;}.cls-4{fill:#f0457d;}.cls-5{fill:#db2868;}.cls-6{fill:#0099f5;}.cls-7{fill:#0086f4;}.cls-8{fill:#fff;}</style></defs><title>Mentoring &amp;amp; Training</title><path class="cls-1" d="M382.67,354.9a52.21,52.21,0,0,0-49.2-82.28,52.24,52.24,0,0,0-83.11-22.53,52.23,52.23,0,0,0-83.45,22.23,52.24,52.24,0,0,0-49.2,82.28A52.25,52.25,0,0,0,121,459l258.48.3a52.25,52.25,0,0,0,3.24-104.4Z"></path><path class="cls-2" d="M245.79,303.61l-.09,0a2.65,2.65,0,0,1-3.52-1.32c-6.59-14.51-22.08-12.13-22.74-12a2.66,2.66,0,0,1-.89-5.25c.2,0,20.17-3.23,28.48,15.07A2.66,2.66,0,0,1,245.79,303.61Z"></path><path class="cls-2" d="M247.21,333.24a2.66,2.66,0,0,1-2.12-2.95c2.18-17.21,8.31-29.36,18.21-36.1,12.38-8.42,25.94-5.09,26.51-4.95a2.67,2.67,0,0,1,1.93,3.24,2.62,2.62,0,0,1-3.24,1.92h0c-.12,0-11.9-2.85-22.26,4.24-8.56,5.85-13.89,16.72-15.87,32.32a2.67,2.67,0,0,1-3,2.31Z"></path><path class="cls-2" d="M227.75,406.41a2.66,2.66,0,0,1-2.1-3.06c2-11.8.29-21.44-5.2-28.63-8.71-11.42-24-13-24.13-13a2.66,2.66,0,1,1,.51-5.3c.72.07,17.75,1.86,27.85,15.11,6.43,8.42,8.52,19.44,6.22,32.76a2.67,2.67,0,0,1-3.08,2.17Z"></path><path class="cls-2" d="M349.37,394.36a2.66,2.66,0,0,1,.67-4.69c15.43-5.33,27.21,11.66,27.71,12.39a2.66,2.66,0,0,1-4.4,3h0c-.1-.14-10-14.35-21.57-10.36A2.66,2.66,0,0,1,349.37,394.36Z"></path><path class="cls-2" d="M120.18,416.87l-.32-.09a2.66,2.66,0,0,1-1.7-3.35c3.43-10.5,9.23-17.3,17.26-20.22,15.13-5.5,32.35,5.08,33.07,5.53a2.66,2.66,0,0,1-2.81,4.52c-.16-.1-15.78-9.66-28.46-5-6.4,2.34-11.11,8-14,16.86A2.67,2.67,0,0,1,120.18,416.87Z"></path><path class="cls-2" d="M297.78,407.34a3,3,0,0,1-.4-.11c-13.42-4.91-21.77-12.63-24.82-23-5.95-20.14,10.62-42.5,11.33-43.44a2.66,2.66,0,0,1,4.26,3.2c-.16.21-15.68,21.19-10.48,38.75,2.55,8.6,9.8,15.14,21.54,19.44a2.66,2.66,0,0,1-1.43,5.11Z"></path><path class="cls-3" d="M102.5,415.79a52.26,52.26,0,0,1,49-52.15A52.23,52.23,0,0,1,194,280.92a53.64,53.64,0,0,1,6.75.44,52.29,52.29,0,0,1,44.23-34.69,52.21,52.21,0,0,0-79.06,25.63,52.23,52.23,0,0,0-49.19,82.27A52.25,52.25,0,0,0,119.92,459h5.42A52.19,52.19,0,0,1,102.5,415.79Z"></path><rect class="cls-4" x="284.06" y="45.5" width="177.92" height="163.29" rx="13.46"></rect><path class="cls-4" d="M331.84,194.76v30.83a5,5,0,0,0,8.34,3.65l37.24-34.48Z"></path><path class="cls-5" d="M447.18,45.5H420.11a14.8,14.8,0,0,1,14.8,14.8V194a14.8,14.8,0,0,1-14.8,14.8h27.07A14.8,14.8,0,0,0,462,194V60.3A14.8,14.8,0,0,0,447.18,45.5Z"></path><rect class="cls-6" x="38.02" y="45.5" width="177.92" height="163.29" rx="13.46"></rect><path class="cls-6" d="M168.36,194.76v30.83a5,5,0,0,1-8.34,3.65l-37.24-34.48Z"></path><path class="cls-7" d="M201.14,45.5H174.08a14.8,14.8,0,0,1,14.8,14.8V194a14.8,14.8,0,0,1-14.8,14.8h27.06a14.8,14.8,0,0,0,14.8-14.8V60.3A14.79,14.79,0,0,0,201.14,45.5Z"></path><path class="cls-8" d="M116.74,158.5a5.32,5.32,0,0,1-4-1.83L92.26,132.86a5.28,5.28,0,0,1,8-6.89l16.25,18.9,37-47.87a5.28,5.28,0,1,1,8.36,6.46l-41,53a5.29,5.29,0,0,1-4,2.05Z"></path><path class="cls-8" d="M352.59,152.85a5.29,5.29,0,0,1-3.73-9L389.7,103a5.28,5.28,0,0,1,7.47,7.47L356.33,151.3A5.27,5.27,0,0,1,352.59,152.85Z"></path><path class="cls-8" d="M393.44,152.85a5.3,5.3,0,0,1-3.74-1.55l-40.84-40.84a5.28,5.28,0,0,1,7.47-7.47l40.84,40.84a5.29,5.29,0,0,1-3.73,9Z"></path></svg>