<svg version="1.1" id="Layer_1" xmlns="http://www.w3.org/2000/svg" xmlns:xlink="http://www.w3.org/1999/xlink" x="0px" y="0px" viewBox="0 0 500 500" xml:space="preserve" width="500" height="500" class="illustration"><style type="text/css">
	.st0{fill:#F2948B;}
	.st1{fill:#F9A498;}
	.st2{fill:#FFBEB3;}
	.st3{fill:#0099F5;}
	.st4{fill:#24285B;}
	.st5{fill:#F9BB0D;}
	.st6{fill:#FFD44D;}
	.st7{fill:#0086F4;}
</style><title>Internet security</title><path class="st0" d="M350,225.6L350,225.6c6.8,7.4,6.3,18.8-1.1,25.6l-90.2,83l0,0l-24.6-26.7l0,0l90.2-83
	C331.8,217.7,343.2,218.2,350,225.6L350,225.6z"></path><path class="st1" d="M392,231.8L392,231.8c6.8,7.4,6.3,18.8-1.1,25.6l0,0l-90.2,83l0,0l-24.6-26.7l0,0l90.2-83
	C373.7,224,385.2,224.5,392,231.8C392,231.8,392,231.8,392,231.8z"></path><path class="st2" d="M429.9,244.9L429.9,244.9c-7.2-7.1-18.7-7.3-26.2-0.5l-61.8,56.9l-41.9,1.3c1.6-3.3,2.4-7,2.4-10.7l0,0
	c0-14-11.3-25.4-25.4-25.4c0,0,0,0,0,0H171.5c-17.4,0-33.7,8.8-43.2,23.5l-21.8,33.5l-41.4,54.5c-0.9,1.2-0.6,2.8,0.5,3.7
	c0.2,0.2,0.5,0.3,0.8,0.4l109,34.2c1,0.3,2.1,0,2.8-0.8l38.5-45.1l95.9-13.2c17-2.3,32.8-9.8,45.4-21.4l71.4-65.7
	c7.1-6.4,7.6-17.4,1.2-24.5C430.3,245.4,430.1,245.1,429.9,244.9z"></path><path class="st1" d="M175.2,310.1h109.4c5.9,0,11.5-2.7,15.2-7.4l0.1-0.2l4.1-0.1c0,0-5.8,11.3-10,13.1S185,317.3,185,317.3
	L175.2,310.1z"></path><path class="st3" d="M326.6,126.4c-44.2-14.7-75.7-43.5-75.7-43.5s-31.5,28.7-75.7,43.4c0,0-2.7,93.2,75.7,122.4
	C329.2,219.6,326.6,126.4,326.6,126.4z"></path><path class="st4" d="M254.3,127.4h-6.7c-9.4,0-17,7.6-17,17v13.5c-0.1,2,1.4,3.6,3.3,3.7c2,0.1,3.6-1.4,3.7-3.3c0-0.1,0-0.3,0-0.4
	v-13.5c0-5.5,4.5-9.9,9.9-9.9h6.7c5.5,0,9.9,4.5,9.9,9.9V158h7.1v-13.5C271.3,135.1,263.7,127.5,254.3,127.4
	C254.3,127.4,254.3,127.4,254.3,127.4z"></path><path class="st5" d="M225,156.5h51.8c1.7,0,3,1.3,3,3v41.7c0,1.7-1.3,3-3,3H225c-1.7,0-3-1.3-3-3v-41.7
	C222,157.9,223.3,156.5,225,156.5z"></path><path class="st6" d="M225,156.5h45c1.7,0,3,1.3,3,3V196c0,1.7-1.3,3-3,3h-45c-1.7,0-3-1.3-3-3v-36.5
	C222,157.9,223.3,156.5,225,156.5z"></path><path class="st4" d="M257.6,176.3c0-3.8-3.1-6.9-6.9-6.9c-3.8,0-6.9,3.1-6.9,6.9c0,2.3,1.2,4.4,3.1,5.7v4.1c0,2.2,1.8,4.1,4.1,4.1
	s4.1-1.8,4.1-4.1c0,0,0,0,0,0v-4.4C256.6,180.4,257.6,178.4,257.6,176.3z"></path><path class="st7" d="M326.6,126.4c-44.2-14.7-75.7-43.5-75.7-43.5s-3.9,3.5-10.7,8.7c12.8,9.7,36.2,25.2,64.9,34.8
	c0,0,2.4,84.5-64.9,117.8c3.5,1.7,7.1,3.3,10.7,4.6C329.2,219.6,326.6,126.4,326.6,126.4z"></path></svg>